<svg width="24" height="24" viewBox="0 0 24 24" fill="none" xmlns="http://www.w3.org/2000/svg">
  <circle cx="12" cy="12" r="9" stroke="#F8FBFF" stroke-width="1.8"/>
  <path d="M3.5 12H20.5" stroke="#F8FBFF" stroke-width="1.8" stroke-linecap="round"/>
  <path d="M12 3C14.85 5.45 16.5 8.62 16.5 12C16.5 15.38 14.85 18.55 12 21" stroke="#F8FBFF" stroke-width="1.8" stroke-linecap="round"/>
  <path d="M12 3C9.15 5.45 7.5 8.62 7.5 12C7.5 15.38 9.15 18.55 12 21" stroke="#F8FBFF" stroke-width="1.8" stroke-linecap="round"/>
  <path d="M5 7.5C6.95 8.6 9.38 9.2 12 9.2C14.62 9.2 17.05 8.6 19 7.5" stroke="#F8FBFF" stroke-width="1.5" stroke-linecap="round"/>
  <path d="M5 16.5C6.95 15.4 9.38 14.8 12 14.8C14.62 14.8 17.05 15.4 19 16.5" stroke="#F8FBFF" stroke-width="1.5" stroke-linecap="round"/>
</svg>
