<svg width="128" height="128" viewBox="0 0 128 128" fill="none" xmlns="http://www.w3.org/2000/svg">
  <path
    d="M64 18C74.4934 18 83 26.5066 83 37V42.5C83 54.9254 74.0457 65 63 65C51.9543 65 43 54.9254 43 42.5V37C43 26.5066 51.5066 18 62 18H64Z"
    fill="#F4F7FC"
  />
  <path
    d="M42 39.5L50.5 30H77.5L86 39.5V46L76.5 49.5H51.5L42 46V39.5Z"
    fill="#0B1120"
  />
  <path
    d="M54 47.5H74L70.5 57.5H57.5L54 47.5Z"
    fill="#0B1120"
  />
  <path
    d="M30 106C30 87.7746 44.7746 73 63 73H65C83.2254 73 98 87.7746 98 106V110H30V106Z"
    fill="#F4F7FC"
  />
  <path
    d="M44 78L56 71H72L84 78L76.5 90H51.5L44 78Z"
    fill="#0B1120"
  />
  <path
    d="M48 95H80L84 110H44L48 95Z"
    fill="#0B1120"
    opacity="0.22"
  />
</svg>
