<?xml version="1.0" encoding="UTF-8"?>
<svg version="1.1" xmlns="http://www.w3.org/2000/svg" width="190" height="190">
<path d="M0 0 C0.99 0.33 1.98 0.66 3 1 C2.113125 1.969375 1.22625 2.93875 0.3125 3.9375 C-7.07062633 12.56281109 -9.39276193 20.37224928 -9.3671875 31.625 C-8.8836429 36.06949501 -7.34234392 39.25785519 -5.09375 43.07421875 C-4 45 -4 45 -4 47 C-0.37 47.66 3.26 48.32 7 49 C6.67 48.34 6.34 47.68 6 47 C7.04508672 41.48155142 8.56426174 35.63958011 13 32 C20.72974038 29.31941113 30.08101997 28.88827199 38 31 C37.01 31.66 36.02 32.32 35 33 C37.31 33.66 39.62 34.32 42 35 C42.495 34.01 42.495 34.01 43 33 C45 35 45 35 45.875 37 C47.24733464 39.43970603 48.50329068 39.86788889 51 41 C51.40089844 40.59007812 51.80179687 40.18015625 52.21484375 39.7578125 C56.34995673 35.838363 59.53125693 34.22605834 65.1796875 33.421875 C65.78039062 33.28265625 66.38109375 33.1434375 67 33 C67.495 32.01 67.495 32.01 68 31 C76.88778188 32.29276827 82.45406808 37.47005597 87.875 44.4375 C90.45558141 48.29497809 91.76145176 52.55935145 93 57 C96.0745356 56.2236068 96.0745356 56.2236068 98 54 C98.99 53.34 99.98 52.68 101 52 C105.05163406 43.44655031 105.88349176 32.0821088 103.0625 22.97265625 C101.99750445 20.59708664 101.99750445 20.59708664 100.77734375 18.56640625 C100.39255859 17.79103516 100.39255859 17.79103516 100 17 C100.33 16.34 100.66 15.68 101 15 C108.77746763 27.0177856 111.2896 37.35072006 111.49609375 51.43359375 C112.30536298 57.16121239 115.97468125 60.11844263 120 64 C119.40832031 64.02578125 118.81664062 64.0515625 118.20703125 64.078125 C112.9640737 64.45445474 109.76050006 65.01159084 106 69 C104.75825204 70.9001177 104.75825204 70.9001177 104 73 C103.443125 74.2684375 103.443125 74.2684375 102.875 75.5625 C101.83106762 78.03896506 101.83106762 78.03896506 102 81 C102.99 81.33 103.98 81.66 105 82 C105 82.66 105 83.32 105 84 C105.66 84.33 106.32 84.66 107 85 C105.25 88.875 105.25 88.875 103 90 C102.67 97.26 102.34 104.52 102 112 C102.66 112.33 103.32 112.66 104 113 C104.74443486 115.73361303 105.3729577 118.41585545 105.9375 121.1875 C106.2849192 122.84510178 106.63257779 124.50265341 106.98046875 126.16015625 C107.1511084 126.98402832 107.32174805 127.80790039 107.49755859 128.65673828 C107.93466016 130.69527125 108.42559083 132.72211648 108.92578125 134.74609375 C111.47135803 145.18175213 113.64102761 157.32966695 108 167 C107.37654306 164.68430278 106.91645296 162.43904132 106.5625 160.0625 C106.02619571 157.14262108 105.19447067 154.70746686 104 152 C103.401875 152.495 102.80375 152.99 102.1875 153.5 C100 155 100 155 97 155 C96.34 156.32 95.68 157.64 95 159 C94.34 158.67 93.68 158.34 93 158 C93.928125 157.01 93.928125 157.01 94.875 156 C97.57004793 152.19522645 98.26911408 149.60458132 99 145 C98.62368888 142.57781883 98.62368888 142.57781883 97 141 C94.54295238 139.76709799 94.54295238 139.76709799 92 139 C91.34 138.67 90.68 138.34 90 138 C88.62657169 137.9310528 87.24997898 137.91532292 85.875 137.9375 C83.956875 137.9684375 83.956875 137.9684375 82 138 C78.93693738 143.75553247 78.81631301 147.1718587 80.3125 153.4375 C80.46912109 154.16904297 80.62574219 154.90058594 80.78710938 155.65429688 C81.17235046 157.44041462 81.58352537 159.2209058 82 161 C83.32 161.33 84.64 161.66 86 162 C80.555 162.99 80.555 162.99 75 164 C75.391875 165.340625 75.78375 166.68125 76.1875 168.0625 C76.40792969 168.81660156 76.62835938 169.57070312 76.85546875 170.34765625 C78.28820233 173.92461063 78.28820233 173.92461063 83 180 C76.73 180 70.46 180 64 180 C63.01 177.525 63.01 177.525 62 175 C61.01 175 60.02 175 59 175 C58.34 174.67 57.68 174.34 57 174 C57 173.34 57 172.68 57 172 C56.34 172 55.68 172 55 172 C54.34 171.01 53.68 170.02 53 169 C48.545 169.99 48.545 169.99 44 171 C44 170.34 44 169.68 44 169 C43.34 169.66 42.68 170.32 42 171 C39.375 171.125 39.375 171.125 37 171 C36.01 173.97 35.02 176.94 34 180 C30.7 180 27.4 180 24 180 C23.67 179.34 23.34 178.68 23 178 C21.02 178.99 21.02 178.99 19 180 C18.87625 179.195625 18.7525 178.39125 18.625 177.5625 C18.41875 176.716875 18.2125 175.87125 18 175 C17.34 174.67 16.68 174.34 16 174 C16 175.98 16 177.96 16 180 C12.37 180 8.74 180 5 180 C4.67 178.68 4.34 177.36 4 176 C3.37351563 176.22816406 2.74703125 176.45632812 2.1015625 176.69140625 C1.28429688 176.97886719 0.46703125 177.26632813 -0.375 177.5625 C-1.18710937 177.85253906 -1.99921875 178.14257812 -2.8359375 178.44140625 C-5 179 -5 179 -7 178 C-5.68 177.67 -4.36 177.34 -3 177 C-2.896875 176.4225 -2.79375 175.845 -2.6875 175.25 C-1.89055751 172.64182458 -0.65299512 171.161609 1 169 C2.03041427 167.01549844 3.03685937 165.01800895 4 163 C3.01 162.67 2.02 162.34 1 162 C1 161.34 1 160.68 1 160 C0.34 160 -0.32 160 -1 160 C-1.20496094 159.10796875 -1.40992188 158.2159375 -1.62109375 157.296875 C-1.89050781 156.12640625 -2.15992187 154.9559375 -2.4375 153.75 C-2.70433594 152.58984375 -2.97117187 151.4296875 -3.24609375 150.234375 C-3.80968 147.81650239 -4.38669951 145.40556696 -5 143 C-5.66 143 -6.32 143 -7 143 C-7.33 141.02 -7.66 139.04 -8 137 C-12.90816802 138.45413318 -12.90816802 138.45413318 -16.0625 142.125 C-15.93688382 147.90334446 -15.12938899 153.68291151 -11 158 C-15.47837922 156.14687756 -17.28966476 153.64498687 -19.1875 149.25 C-19.455625 148.5075 -19.72375 147.765 -20 147 C-21.1792643 153.25522804 -21.47131067 157.78299456 -18.16796875 163.375 C-15.79910339 166.67081267 -13.89850707 167.75665434 -10 168.8125 C-6.87530993 169.00779313 -5.57816887 168.6857258 -3 167 C-4 170 -4 170 -6 171 C-6.72693904 172.97888961 -7.39816251 174.97954558 -8 177 C-9 174 -9 174 -8 171 C-8.86625 170.9175 -9.7325 170.835 -10.625 170.75 C-18.11411526 169.08575216 -22.0458717 164.17698961 -26 158 C-33.4974698 145.41949982 -34.45657296 133.27213257 -34 119 C-33.34 119 -32.68 119 -32 119 C-31.835 117.845 -31.67 116.69 -31.5 115.5 C-30.40732217 110.50718013 -28.33240594 106.16890918 -26.0625 101.625 C-25.71445312 100.92310547 -25.36640625 100.22121094 -25.0078125 99.49804688 C-23.26914435 96.10272322 -21.72514614 93.72514614 -19 91 C-19.33 93.97 -19.66 96.94 -20 100 C-14.8480319 91.05535823 -14.8480319 91.05535823 -14 81 C-16.16666667 78.58333333 -16.16666667 78.58333333 -19 77 C-22 73.5862069 -22 73.5862069 -22 70 C-16.06 69.01 -16.06 69.01 -10 68 C-10.99 66.35 -11.98 64.7 -13 63 C-12.67 62.01 -12.34 61.02 -12 60 C-12.95544552 57.14607181 -14.51168718 54.60813662 -16 52 C-16.32871094 51.34902344 -16.65742187 50.69804688 -16.99609375 50.02734375 C-19.53427336 45.64828662 -21.92447419 44.40357375 -26.8125 43.0625 C-28.53612004 42.68225621 -30.26404236 42.31922163 -32 42 C-29.87037079 39.6224438 -29.20414993 39.04166325 -25.9375 38.375 C-24.968125 37.92125 -23.99875 37.4675 -23 37 C-22.1832892 34.69037697 -21.81535239 32.52342761 -21.51953125 30.09375 C-21 28 -21 28 -18 26 C-17.34 25.01 -16.68 24.02 -16 23 C-16 25.31 -16 27.62 -16 30 C-15.34 30 -14.68 30 -14 30 C-14.185625 29.195625 -14.37125 28.39125 -14.5625 27.5625 C-15.40023894 20.7409115 -15.10484057 15.94596479 -10.875 10.3125 C-4.02303211 2.29034006 -4.02303211 2.29034006 0 0 Z M11 46 C8.31570423 49.00641127 8 49.75589918 8 54 C8.66 54 9.32 54 10 54 C10.66 51.36 11.32 48.72 12 46 C11.67 46 11.34 46 11 46 Z M54 48 C54 48.33 54 48.66 54 49 C55.65 49 57.3 49 59 49 C59 48.67 59 48.34 59 48 C57.35 48 55.7 48 54 48 Z M10 54 C9.67 54.99 9.34 55.98 9 57 C10.37168238 59.19038423 10.37168238 59.19038423 12 61 C12.99 60.34 13.98 59.68 15 59 C14.67 57.68 14.34 56.36 14 55 C12.68 54.67 11.36 54.34 10 54 Z M6 65 C7 68 7 68 7 68 Z M5 68 C4.67 68.66 4.34 69.32 4 70 C4.66 70 5.32 70 6 70 C5.67 69.34 5.34 68.68 5 68 Z M11 68 C10.67 68.99 10.34 69.98 10 71 C10.99 72.485 10.99 72.485 12 74 C12.99 73.67 13.98 73.34 15 73 C14.67 71.35 14.34 69.7 14 68 C13.01 68 12.02 68 11 68 Z M41 74 C39.23619001 75.99818338 37.5157085 78.01357558 35.8125 80.0625 C34.81281115 81.25807274 33.81281341 82.45338727 32.8125 83.6484375 C32.32910156 84.2269043 31.84570312 84.80537109 31.34765625 85.40136719 C29.69917383 87.35684959 28.00758208 89.27238322 26.3125 91.1875 C23.7882982 93.65062051 23.7882982 93.65062051 24 96 C25.98 96.33 27.96 96.66 30 97 C30 96.34 30 95.68 30 95 C30.66 95 31.32 95 32 95 C32 95.66 32 96.32 32 97 C33.65 97 35.3 97 37 97 C37 97.99 37 98.98 37 100 C37.66 100.66 38.32 101.32 39 102 C38.21625 101.814375 37.4325 101.62875 36.625 101.4375 C34.02910225 100.74037734 34.02910225 100.74037734 32 102 C31.67 102.99 31.34 103.98 31 105 C30.67 103.35 30.34 101.7 30 100 C29.01 100.33 28.02 100.66 27 101 C26.01 101 25.02 101 24 101 C23.01 101.33 22.02 101.66 21 102 C21.33 102.99 21.66 103.98 22 105 C21.01 105 20.02 105 19 105 C18.67 104.01 18.34 103.02 18 102 C16.45258952 107.81068425 17.9461197 112.4760558 20 118 C21.97363111 121.08413797 21.97363111 121.08413797 24 123 C22.35 122.67 20.7 122.34 19 122 C19.44342607 124.31103232 19.90158147 126.6175485 20.37890625 128.921875 C20.81685112 131.09231875 21.21702846 133.2705507 21.58984375 135.453125 C22.60608222 142.11764648 22.60608222 142.11764648 26.625 147.125 C27.73875 147.41375 28.8525 147.7025 30 148 C31.58755691 148.48642316 33.17078646 148.98713644 34.75 149.5 C35.50796875 149.7165625 36.2659375 149.933125 37.046875 150.15625 C39 151 39 151 41 154 C41.4140625 156.91796875 41.4140625 156.91796875 41.625 160.1875 C41.69976562 161.27417969 41.77453125 162.36085938 41.8515625 163.48046875 C41.90054688 164.31191406 41.94953125 165.14335937 42 166 C44.475 165.505 44.475 165.505 47 165 C45.515 159.555 45.515 159.555 44 154 C45.546875 153.195625 47.09375 152.39125 48.6875 151.5625 C53.26254466 149.06163362 57.63366886 146.37207 61.9375 143.4375 C62.99839844 142.71433594 64.05929688 141.99117188 65.15234375 141.24609375 C69.97323105 137.44361062 72.35396141 133.89830495 74 128 C73.34 128 72.68 128 72 128 C72 127.34 72 126.68 72 126 C72.61875 125.95875 73.2375 125.9175 73.875 125.875 C74.57625 125.58625 75.2775 125.2975 76 125 C77.14228658 122.24236568 77.14228658 122.24236568 78 119 C78.556875 117.948125 79.11375 116.89625 79.6875 115.8125 C81.38645836 113.01313401 81.38645836 113.01313401 80 110 C78.62485459 108.2912354 78.62485459 108.2912354 77 107 C76.34 107 75.68 107 75 107 C74.505 107.99 74.505 107.99 74 109 C73.67 108.34 73.34 107.68 73 107 C71.02 107.495 71.02 107.495 69 108 C69 108.66 69 109.32 69 110 C68.34 110 67.68 110 67 110 C66.67 109.34 66.34 108.68 66 108 C63.525 108.495 63.525 108.495 61 109 C60.505 107.02 60.505 107.02 60 105 C58.35 106.65 56.7 108.3 55 110 C54.01 105.38 53.02 100.76 52 96 C51.67 96 51.34 96 51 96 C51 98.97 51 101.94 51 105 C50.08854167 102.98177083 49.17708333 100.96354167 48.265625 98.9453125 C46.78070314 96.6629326 45.49584592 95.99624102 43 95 C44.32 94.67 45.64 94.34 47 94 C45.35 87.4 43.7 80.8 42 74 C41.67 74 41.34 74 41 74 Z M-12 79 C-11.67 79.99 -11.34 80.98 -11 82 C-8.03824877 81.38722388 -6.61941217 80.74627478 -4 79 C-4.33 78.34 -4.66 77.68 -5 77 C-8.10551666 77 -9.35261084 77.5393715 -12 79 Z M28 77 C27.67 78.32 27.34 79.64 27 81 C27.66 79.68 28.32 78.36 29 77 C28.67 77 28.34 77 28 77 Z M89 77 C90 80 90 80 90 80 Z M51 78 C51 79.98 51 81.96 51 84 C52.32 84 53.64 84 55 84 C54.67 82.35 54.34 80.7 54 79 C53.01 78.67 52.02 78.34 51 78 Z M48 79 C48 79.99 48 80.98 48 82 C48.66 82 49.32 82 50 82 C50 81.01 50 80.02 50 79 C49.34 79 48.68 79 48 79 Z M60 80 C60 81.32 60 82.64 60 84 C60.66 84 61.32 84 62 84 C61.67 82.68 61.34 81.36 61 80 C60.67 80 60.34 80 60 80 Z M70 87 C69.01 90.96 68.02 94.92 67 99 C70.3 98.67 73.6 98.34 77 98 C75.02 94.37 73.04 90.74 71 87 C70.67 87 70.34 87 70 87 Z M22 96 C21.67 96.66 21.34 97.32 21 98 C21.99 97.67 22.98 97.34 24 97 C23.34 96.67 22.68 96.34 22 96 Z M67 100 C65.03712176 101.91738855 65.03712176 101.91738855 64 104 C64.33 104.66 64.66 105.32 65 106 C65.66 105.505 66.32 105.01 67 104.5 C70.96633241 102.51683379 73.60303262 102.77642539 78 103 C78.33 102.34 78.66 101.68 79 101 C78.67 100.34 78.34 99.68 78 99 C74.1398728 99 70.77049776 99.17734594 67 100 Z M-5 102 C-5.05422947 103.4370809 -5.09289723 104.87475462 -5.125 106.3125 C-5.14820312 107.11300781 -5.17140625 107.91351563 -5.1953125 108.73828125 C-5.15817322 111.28388576 -5.15817322 111.28388576 -3 114 C-2.34 113.67 -1.68 113.34 -1 113 C-1.66 109.37 -2.32 105.74 -3 102 C-3.66 102 -4.32 102 -5 102 Z M78 103 C78.33 103.99 78.66 104.98 79 106 C79 105.01 79 104.02 79 103 C78.67 103 78.34 103 78 103 Z M38 152 C39 154 39 154 39 154 Z " fill="#E9967A" transform="translate(53,5)"/>
</svg>
