<?xml version="1.0" encoding="UTF-8" standalone="no"?>
<svg
   xmlns:dc="http://purl.org/dc/elements/1.1/"
   xmlns:cc="http://creativecommons.org/ns#"
   xmlns:rdf="http://www.w3.org/1999/02/22-rdf-syntax-ns#"
   xmlns:svg="http://www.w3.org/2000/svg"
   xmlns="http://www.w3.org/2000/svg"
   xmlns:sodipodi="http://sodipodi.sourceforge.net/DTD/sodipodi-0.dtd"
   xmlns:inkscape="http://www.inkscape.org/namespaces/inkscape"
   sodipodi:docname="Arkinghts English Release Logo.svg"
   inkscape:version="0.92.4 (5da689c313, 2019-01-14)"
   id="svg8"
   version="1.1"
   viewBox="0 0 109.80208 31.078661"
   height="31.078661mm"
   width="109.80209mm">
  <defs
     id="defs2">
    <filter
       inkscape:label="Sharpen More"
       inkscape:menu="Image Effects"
       inkscape:menu-tooltip="Sharpen edges and boundaries within the object, force=0.3"
       style="color-interpolation-filters:sRGB"
       id="filter843">
      <feConvolveMatrix
         targetY="1"
         targetX="1"
         in="SourceGraphic"
         divisor="1"
         kernelMatrix="0 -0.3 0 -0.3 2.2 -0.3 0 -0.3 0"
         order="3 3"
         result="result1"
         id="feConvolveMatrix839" />
      <feBlend
         in2="SourceGraphic"
         mode="normal"
         result="result2"
         id="feBlend841" />
    </filter>
  </defs>
  <sodipodi:namedview
     inkscape:window-maximized="1"
     inkscape:window-y="22"
     inkscape:window-x="-8"
     inkscape:window-height="716"
     inkscape:window-width="1366"
     showgrid="false"
     inkscape:document-rotation="0"
     inkscape:current-layer="layer1"
     inkscape:document-units="mm"
     inkscape:cy="116.22714"
     inkscape:cx="218.15077"
     inkscape:zoom="128"
     inkscape:pageshadow="2"
     inkscape:pageopacity="0"
     borderopacity="1.0"
     bordercolor="#666666"
     pagecolor="#0d0d0d"
     id="base"
     showguides="true"
     inkscape:guide-bbox="true" />
  <metadata
     id="metadata5">
    <rdf:RDF>
      <cc:Work
         rdf:about="">
        <dc:format>image/svg+xml</dc:format>
        <dc:type
           rdf:resource="http://purl.org/dc/dcmitype/StillImage" />
        <dc:title />
      </cc:Work>
    </rdf:RDF>
  </metadata>
  <g
     id="layer1"
     inkscape:groupmode="layer"
     inkscape:label="Layer 1"
     transform="translate(-46.661378,-95.385689)">
    <g
       id="g921"
       transform="matrix(0.21666209,0,0,0.21666209,33.466007,32.814252)"
       style="fill:#000000;fill-opacity:1;stroke-width:1.2211796">
      <path
         d="m 327.232,288.79735 v 5.49065 c -0.0342,18.04 0.029,36.08 -0.054,54.12 -0.019,4.11 0.499,7.584 5.377,8.449 0.175,0.031 0.357,0.22 0.462,0.382 0.102,0.157 0.109,0.375 0.24,0.893 h -23.224 c 1.034,-0.769 1.556,-1.456 2.185,-1.574 3.714,-0.698 4.522,-3.305 4.522,-6.528 -0.004,-14.778 -0.061,-29.558 0.076,-44.334 0.016,-1.751 0.771,-3.714 1.759,-5.194 2.469,-3.695 5.27,-7.169 7.936,-10.731 0.721,-0.97365 0.721,-0.97365 0.721,-0.97365 z"
         id="path4"
         inkscape:connector-curvature="0"
         style="clip-rule:evenodd;fill:#000000;fill-opacity:1;fill-rule:evenodd;stroke-width:1.2211796"
         sodipodi:nodetypes="ccccccccccccc" />
      <path
         d="m 335.081,431.779 c -1.486,-2.226 -2.973,-4.452 -4.799,-7.187 1.321,0.643 2.263,1.075 3.181,1.552 2.677,1.387 3.713,0.912 4.02,-2.101 0.33,-3.234 0.529,-6.485 0.665,-9.734 0.206,-4.937 0.162,-4.938 4.89,-4.415 0,3.666 0.535,7.401 -0.186,10.876 -0.489,2.356 -2.751,4.34 -4.203,6.502 -1,1.492 -1.971,3.004 -2.955,4.507 l -0.30494,0.46135 z"
         id="path6"
         inkscape:connector-curvature="0"
         style="clip-rule:evenodd;fill:#000000;fill-opacity:1;fill-rule:evenodd;stroke-width:1.2211796"
         sodipodi:nodetypes="ccccccccccc" />
      <path
         d="m 158.386,325.407 c 4.817,8.731 9.478,17.515 14.521,26.074 1.188,2.017 3.64,3.305 5.558,4.87 0.677,0.552 1.497,0.929 1.998,2.086 -4.957,0 -9.914,0.045 -14.869,-0.055 -0.657,-0.013 -1.575,-0.608 -1.908,-1.197 -5.793,-10.236 -11.514,-20.513 -17.256,-30.79 2.463,-1.145 4.945,-2.02 7.137,-3.367 8.247,-5.069 7.793,-15.482 5.254,-20.901 -2.002,-4.271 -9.823,-6.554 -13.516,-3.778 -1.334,1.002 -2.242,3.418 -2.258,5.199 -0.158,17.747 -0.166,35.495 -0.026,53.242 0.032,4.082 -0.76,7.542 -3.629,10.606 -2.446,2.611 -4.51,5.582 -7.023,8.746 0,-24.933 0.012,-49.174 -0.013,-73.417 -0.003,-3.653 -1.299,-5.146 -4.923,-6.309 -0.867,-0.278 -1.629,-0.884 -2.251,-1.999 0.63,-0.083 1.262,-0.244 1.891,-0.235 9.275,0.134 18.558,0.127 27.822,0.535 2.975,0.131 6.026,1.052 8.821,2.167 5.354,2.138 8.439,6.167 8.764,12.104 0.316,5.774 -2.215,10.035 -7.007,12.967 -2.141,1.309 -4.525,2.221 -7.087,3.452 z"
         id="path8"
         inkscape:connector-curvature="0"
         style="clip-rule:evenodd;fill:#000000;fill-opacity:1;fill-rule:evenodd;stroke-width:1.2211796" />
      <path
         d="m 457.679,358.246 c -7.547,0 -15.093,0 -22.64,0 -0.097,-0.199 -0.193,-0.397 -0.29,-0.597 0.824,-0.501 1.603,-1.112 2.481,-1.484 2.256,-0.955 3.758,-2.446 3.767,-5.018 0.025,-7.542 0.009,-15.085 0.009,-22.876 -8.709,0 -17.321,0 -26.371,0 0,3.324 0,6.651 0,9.978 0,3.774 0.079,7.551 -0.024,11.322 -0.091,3.344 1.086,5.71 4.402,6.824 0.678,0.228 1.244,0.789 1.652,1.756 -7.535,0 -15.07,0 -23.429,0 1.252,-0.856 1.911,-1.542 2.712,-1.813 2.94,-0.997 4.197,-3.153 4.204,-6.055 0.041,-15.913 0.061,-31.827 -0.013,-47.74 -0.013,-2.959 -1.27,-5.297 -4.456,-6.179 -0.77,-0.213 -1.409,-0.896 -1.885,-1.955 7.62,0 15.241,0 22.861,0 0.112,0.185 0.224,0.369 0.336,0.553 -0.809,0.515 -1.78,0.885 -2.393,1.574 -1.408,1.584 -3.673,3.268 -3.768,5.011 -0.415,7.604 -0.179,15.242 -0.179,23.074 8.83,0 17.435,0 26.286,0 0,-7.993 0.182,-15.924 -0.164,-23.833 -0.064,-1.457 -2.176,-2.913 -3.514,-4.19 -0.696,-0.665 -1.766,-0.939 -2.666,-1.39 0.074,-0.249 0.148,-0.498 0.224,-0.746 7.668,0 15.336,0 23.005,0 0.076,0.193 0.152,0.387 0.229,0.58 -0.7,0.456 -1.344,1.099 -2.112,1.335 -3.277,1.011 -4.38,3.464 -4.387,6.554 -0.036,15.708 -0.04,31.418 -0.002,47.127 0.007,2.995 1.205,5.297 4.301,6.308 0.753,0.246 1.381,0.878 2.065,1.333 -0.079,0.182 -0.16,0.364 -0.241,0.547 z"
         id="path10"
         inkscape:connector-curvature="0"
         style="clip-rule:evenodd;fill:#000000;fill-opacity:1;fill-rule:evenodd;stroke-width:1.2211796" />
      <path
         d="m 239.664,358.424 c -4.266,0 -8.949,0.138 -13.612,-0.103 -1.09,-0.056 -2.511,-1.164 -3.104,-2.181 -5.324,-9.123 -10.469,-18.35 -15.757,-27.494 -0.521,-0.899 -1.647,-1.449 -2.493,-2.16 -0.417,1.003 -1.179,2 -1.196,3.011 -0.109,6.526 -0.063,13.055 -0.052,19.583 0.008,4.775 1.042,6.084 5.583,7.356 0.859,0.241 1.641,0.754 2.259,1.779 -8.723,0 -17.445,0 -26.167,0 -0.078,-0.235 -0.156,-0.472 -0.233,-0.707 0.887,-0.382 1.748,-0.855 2.667,-1.129 3.491,-1.038 4.852,-2.771 4.854,-6.412 0.008,-15.606 0.006,-31.211 0.003,-46.817 0,-4.044 -1.305,-5.671 -5.144,-6.741 -0.916,-0.255 -1.721,-0.907 -2.302,-1.798 8.371,0 16.742,0 25.113,0 0.058,0.316 0.115,0.631 0.173,0.947 -0.825,0.323 -1.638,0.683 -2.478,0.964 -2.425,0.81 -4.225,2.31 -4.266,4.971 -0.112,7.231 -0.038,14.464 -0.038,21.909 3.339,0.173 5.956,-1.329 7.89,-3.439 5.227,-5.702 10.281,-11.576 15.151,-17.585 2.219,-2.738 0.968,-5.106 -2.579,-5.973 -0.979,-0.239 -1.867,-0.855 -2.796,-1.299 0.099,-0.272 0.198,-0.545 0.296,-0.817 6.731,0 13.462,0 20.194,0 -5.797,3.065 -9.152,8.484 -13.253,13.127 -4.173,4.724 -8.258,9.526 -12.395,14.308 5.357,9.64 10.421,19.251 16.015,28.543 1.909,3.171 5.147,5.539 7.667,8.157 z"
         id="path12"
         inkscape:connector-curvature="0"
         style="clip-rule:evenodd;fill:#000000;fill-opacity:1;fill-rule:evenodd;stroke-width:1.2211796" />
      <path
         d="m 390.402,316.905 c -1.452,-7.216 -4.633,-13.396 -11.333,-16.879 -2.987,-1.553 -6.439,-2.612 -9.784,-2.993 -6.433,-0.734 -11.12,2.659 -13.788,8.182 -6.566,13.594 -7.058,27.458 -0.154,41.098 4.62,9.13 12.558,11.992 21.417,8.353 2.423,-0.995 3.846,-2.534 3.667,-5.319 -0.111,-1.727 -0.026,-3.467 -0.024,-5.201 0.006,-5.623 -1.672,-10.412 -7.495,-13.971 3.736,0 6.691,0 9.646,0 3.043,0 6.087,0 9.56,0 0,5.368 0.014,10.524 -0.023,15.681 -0.004,0.456 -0.241,0.999 -0.545,1.35 -14.512,16.74 -32.549,15.348 -44.908,3.199 -7.475,-7.348 -9.237,-16.979 -8.269,-27.127 0.699,-7.32 2.826,-14.193 7.829,-19.798 9.281,-10.4 23.851,-12.724 37.495,-6.125 0.642,0.311 1.249,0.695 1.901,0.98 4.597,2.013 7.502,4.756 5.956,10.493 -0.676,2.506 -0.114,5.345 -0.114,8.034 -0.344,0.013 -0.689,0.028 -1.034,0.043 z"
         id="path14"
         inkscape:connector-curvature="0"
         style="clip-rule:evenodd;fill:#000000;fill-opacity:1;fill-rule:evenodd;stroke-width:1.2211796" />
      <path
         d="m 485.122,297.64 c -9.721,-1.76 -15.063,2.194 -22.271,15.798 0.05,-0.783 0.088,-1.567 0.149,-2.35 0.372,-4.768 0.848,-9.531 1.077,-14.306 0.093,-1.933 0.641,-2.646 2.67,-2.637 15.901,0.071 31.803,0.018 47.704,0.104 0.804,0.004 2.244,0.881 2.302,1.46 0.579,5.759 0.929,11.541 1.388,17.945 -2.371,-3.726 -4.253,-7.1 -6.538,-10.175 -3.323,-4.471 -7.951,-6.454 -13.55,-6.3 -1.692,0.046 -2.243,0.506 -2.236,2.301 0.08,19.263 0.016,38.527 0.112,57.791 0.018,3.633 -0.789,6.749 -3.219,9.529 -2.464,2.818 -4.693,5.841 -7.589,9.483 0.001,-26.799 0.001,-52.759 0.001,-78.643 z"
         id="path16"
         inkscape:connector-curvature="0"
         style="clip-rule:evenodd;fill:#000000;fill-opacity:1;fill-rule:evenodd;stroke-width:1.2211796" />
      <path
         d="m 245.752,294.184 c 4.896,0 9.546,-0.089 14.187,0.077 0.897,0.032 2.002,0.877 2.601,1.66 10.561,13.822 21.057,27.693 31.571,41.551 0.541,0.711 1.11,1.4 2.029,2.556 0.181,-1.182 0.358,-1.805 0.359,-2.429 0.003,-9.173 -0.149,-18.348 0.013,-27.518 0.113,-6.351 -2.578,-10.672 -8.275,-13.302 -0.997,-0.459 -1.848,-1.233 -2.479,-2.438 7.852,0 15.703,0 23.554,0 0.119,0.191 0.237,0.381 0.356,0.571 -0.781,0.559 -1.491,1.285 -2.354,1.65 -5.8,2.449 -8.531,6.608 -8.449,13.063 0.193,15.082 0.044,30.168 0.035,45.252 0,1.09 0,2.181 0,3.131 -3.018,1.104 -4.683,-0.049 -6.249,-2.165 -13.664,-18.471 -27.378,-36.904 -41.143,-55.3 -1.617,-2.161 -3.628,-4.028 -5.756,-6.359 z"
         id="path18"
         inkscape:connector-curvature="0"
         style="clip-rule:evenodd;fill:#000000;fill-opacity:1;fill-rule:evenodd;stroke-width:1.2211796" />
      <path
         d="m 89.45,309.576 c -2.146,3.554 -4.065,6.732 -5.984,9.91 -0.214,-0.103 -0.428,-0.207 -0.643,-0.31 3.565,-8.588 7.131,-17.178 10.88,-26.208 0.535,0.954 0.967,1.572 1.25,2.252 7.178,17.232 14.359,34.463 21.489,51.715 1.716,4.152 3.382,8.291 7.415,11.185 -7.52,0 -15.039,0 -23.222,0 0.993,-0.729 1.617,-1.356 2.37,-1.71 2.88,-1.357 4.096,-3.197 3.041,-6.068 -1.958,-5.33 -4.216,-10.557 -6.575,-15.723 -0.335,-0.734 -1.928,-1.239 -2.949,-1.257 -6.306,-0.113 -12.614,-0.057 -19.012,-0.057 -0.195,-2.671 1.312,-2.994 3.244,-2.981 5.583,0.036 11.167,0.013 17.194,0.013 -2.865,-7 -5.599,-13.68 -8.498,-20.761 z"
         id="path20"
         inkscape:connector-curvature="0"
         style="clip-rule:evenodd;fill:#000000;fill-opacity:1;fill-rule:evenodd;stroke-width:1.2211796" />
      <path
         d="m 541.255,294.136 c -6.292,7.764 -4.938,16.768 3.186,22.645 5.104,3.692 10.542,7.019 15.168,11.237 2.954,2.694 5.284,6.469 6.858,10.197 3.125,7.409 0.1,14.541 -7.096,18.13 -1.863,0.93 -3.92,1.472 -6.043,1.981 3.395,-4 4.805,-8.504 3.299,-13.358 -0.867,-2.798 -2.351,-5.805 -4.457,-7.734 -4.322,-3.957 -9.141,-7.409 -13.96,-10.775 -5.532,-3.863 -9.911,-8.387 -11.039,-15.358 -1.378,-8.529 4.916,-16.296 14.084,-16.965 z"
         id="path22"
         inkscape:connector-curvature="0"
         style="clip-rule:evenodd;fill:#000000;fill-opacity:1;fill-rule:evenodd;stroke-width:1.2211796" />
      <path
         d="m 297.753,396.237 c 0,5.357 -0.231,9.932 0.159,14.455 0.1,1.16 2.159,2.152 4.106,3.948 -4.4,-2.142 -6.295,0.96 -9.181,3.146 0,-7.672 0,-14.733 0,-21.795 0,-7.104 0,-14.207 0,-22.275 2.942,4.256 6.349,6.445 10.666,7.347 4.076,0.851 8.075,2.071 12.547,3.244 0,7.671 0.44,16.129 -0.248,24.495 -0.229,2.781 -3.356,5.324 -5.096,7.881 -2.878,-1.437 -5.447,-2.718 -8.016,-4 0.146,-0.387 0.293,-0.774 0.44,-1.161 2.431,0.8 4.862,1.6 7.573,2.491 0,-4.315 0.042,-8.354 -0.048,-12.391 -0.014,-0.572 -0.555,-1.474 -1.049,-1.642 -3.708,-1.264 -7.467,-2.381 -11.853,-3.743 z m -0.012,-15.859 c 0,4.879 -0.068,8.833 0.064,12.78 0.023,0.711 0.73,1.791 1.37,2.025 3.674,1.347 7.422,2.491 11.553,3.837 0,-4.6 0.038,-8.753 -0.045,-12.904 -0.012,-0.577 -0.499,-1.482 -0.978,-1.657 -3.756,-1.372 -7.564,-2.603 -11.964,-4.081 z"
         id="path24"
         inkscape:connector-curvature="0"
         style="clip-rule:evenodd;fill:#000000;fill-opacity:1;fill-rule:evenodd;stroke-width:1.2211796" />
      <path
         d="m 349.53,381.478 c 0.658,0.709 1.247,1.504 1.992,2.105 0.957,0.772 2.04,1.389 3.069,2.072 0.184,-1.242 0.474,-2.48 0.519,-3.727 0.043,-1.199 -0.171,-2.408 -0.258,-3.614 -0.004,-0.055 0.122,-0.119 0.372,-0.348 1.906,1.479 3.842,2.981 6.119,4.748 -1.578,1.364 -2.828,2.442 -4.456,3.849 2.536,0.961 4.721,1.789 6.906,2.617 -0.101,0.31 -0.199,0.62 -0.299,0.93 -1.965,-0.635 -3.945,-1.229 -5.892,-1.915 -3.658,-1.29 -4.053,-1.04 -4.075,2.777 -0.004,0.713 0.021,1.427 0.016,2.141 -0.065,7.522 -0.406,5.804 5.568,8.09 1.846,0.706 3.815,1.087 6.044,1.705 0,-4.596 0,-8.828 0,-13.226 1.713,-0.141 3.196,-0.263 4.852,-0.399 0,8.519 0.097,16.838 -0.102,25.149 -0.03,1.296 -1.319,2.619 -2.175,3.825 -1.154,1.629 -2.451,3.156 -3.794,4.862 -1.715,-2.178 -3.241,-4.117 -4.813,-6.113 0.343,-0.076 0.563,-0.205 0.7,-0.145 5.392,2.356 5.386,2.359 5.387,-3.778 0,-1.937 -0.093,-3.884 0.076,-5.807 0.185,-2.094 -0.652,-3.214 -2.627,-3.792 -2.886,-0.846 -5.729,-1.832 -8.947,-2.873 -0.65,6.804 -0.981,13.432 -7.505,17.22 1.002,-4.627 2.116,-8.877 2.807,-13.195 0.782,-4.897 0.512,-5.117 -3.893,-7.725 1.134,0.132 2.267,0.265 3.709,0.433 0,-5.133 0,-10.329 0,-15.525 0.234,-0.113 0.467,-0.227 0.7,-0.341 z"
         id="path26"
         inkscape:connector-curvature="0"
         style="clip-rule:evenodd;fill:#000000;fill-opacity:1;fill-rule:evenodd;stroke-width:1.2211796" />
      <path
         d="m 273.828,380.904 c 3.509,4.564 7.863,7.297 14.098,6.113 0,2.749 0,5.249 0,7.748 0,5.806 -0.231,11.623 0.083,17.412 0.205,3.754 -0.792,6.717 -3.449,9.269 -0.787,0.756 -1.385,1.709 -2.007,2.493 -1.601,-1.638 -3.109,-3.181 -5.046,-5.161 1.866,0.711 3.336,1.271 5.147,1.962 1.285,-3.726 1.128,-7.391 0.21,-10.796 -0.284,-1.058 -3.066,-1.441 -4.78,-2.166 -1.218,2.933 -1.98,5.829 -3.537,8.204 -1.458,2.225 -3.758,3.896 -6.051,5.49 6.908,-11.978 4.445,-24.961 4.872,-37.549 0.024,-0.709 -0.059,-1.422 -0.052,-2.133 0.001,-0.158 0.174,-0.314 0.512,-0.886 z m 9.561,26.992 c 0,-1.899 -0.016,-3.612 0.003,-5.324 0.048,-4.205 -0.51,-4.711 -5.353,-4.417 0,1.467 0.084,2.97 -0.016,4.46 -0.292,4.308 0.437,5.109 5.366,5.281 z m 0.027,-10.251 c 0,-2.813 0.332,-5.378 -0.151,-7.779 -0.216,-1.078 -1.994,-1.948 -3.216,-2.645 -0.321,-0.183 -1.573,0.488 -1.783,1.012 -1.694,4.242 0.263,8.077 5.15,9.412 z"
         id="path28"
         inkscape:connector-curvature="0"
         style="clip-rule:evenodd;fill:#000000;fill-opacity:1;fill-rule:evenodd;stroke-width:1.2211796" />
      <path
         d="m 244.907,400.658 c 4.761,1.518 9.201,2.933 13.948,4.446 0,-9.434 0,-18.491 0,-28.321 2.318,2.61 4.975,4.082 4.547,7.759 -0.281,2.413 -0.021,4.883 -0.106,7.324 -0.071,2.052 0.738,3.03 3.308,2.721 -0.192,-3.952 -0.383,-7.882 -0.576,-11.867 1.029,0 2.708,0 4.573,0 0,9.227 0,18.335 0,27.442 -4.118,0.171 -24.705,-7.12 -25.694,-9.504 z m 20.356,6.944 c 0.399,-0.226 0.797,-0.451 1.196,-0.677 0,-2.913 0.152,-5.841 -0.093,-8.734 -0.074,-0.874 -1.253,-1.655 -1.925,-2.479 -0.363,0.805 -0.991,1.595 -1.04,2.419 -0.131,2.213 -0.2,4.466 0.086,6.652 0.132,1 1.157,1.883 1.776,2.819 z"
         id="path30"
         inkscape:connector-curvature="0"
         style="clip-rule:evenodd;fill:#000000;fill-opacity:1;fill-rule:evenodd;stroke-width:1.2211796" />
      <path
         d="m 346.8,404.469 c -5.046,-1.53 -10.091,-3.06 -15.972,-4.844 0,2.607 -0.785,5.348 0.223,6.984 0.991,1.609 3.802,2.098 5.668,3.715 -1.998,-0.45 -3.995,-0.9 -6.268,-1.412 -1.1,8.273 -4.056,15.076 -12.36,18.495 1.51,-2.913 2.982,-5.571 4.287,-8.31 2.831,-5.94 2.976,-12.403 3.3,-18.785 0.041,-0.798 -1.37,-1.965 -2.36,-2.457 -1.9,-0.943 -3.98,-1.525 -5.986,-2.257 0.144,-0.461 0.286,-0.923 0.43,-1.385 3.972,1.207 7.943,2.413 12.598,3.827 -0.955,-3.664 -1.773,-6.802 -2.613,-10.021 6.086,2.098 7.868,5.739 5.155,11.163 3.722,0.009 6.605,3.563 10.677,1.564 1.179,0.972 2.386,1.967 3.592,2.962 -0.125,0.254 -0.248,0.507 -0.371,0.761 z"
         id="path32"
         inkscape:connector-curvature="0"
         style="clip-rule:evenodd;fill:#000000;fill-opacity:1;fill-rule:evenodd;stroke-width:1.2211796" />
      <path
         style="clip-rule:evenodd;fill:#000000;fill-opacity:1;fill-rule:evenodd;stroke-width:0.99999994"
         d="m 159.98242,29.455078 c -0.23911,0.03767 -0.47768,0.07448 -0.7168,0.111328 0,4.566896 -0.0477,9.133961 0.0137,13.699219 0.0794,5.834522 -2.37776,10.074379 -8.28516,12.935547 3.42425,0 6.64,0.0052 9.77148,0 h 9.54688 v -1.296875 -1.195313 c -0.49207,0.0059 -0.99889,-0.0035 -1.48438,-0.0098 -4.84859,-0.923697 -7.45119,-3.816999 -7.57812,-8.734375 -0.0753,-2.920128 0.15608,-5.856647 -0.0527,-8.763672 -0.16214,-2.265842 -0.79312,-4.498267 -1.21485,-6.746094 z"
         transform="matrix(1.2211796,0,0,1.2211796,60.902999,289.77)"
         id="path34"
         inkscape:connector-curvature="0"
         sodipodi:nodetypes="cccccccccccc" />
      <path
         d="m 74.651,339.508 c 0.327,4.533 -0.38,8.814 1.167,12 1.389,2.86 5.255,4.517 8.049,6.72 -7.396,0 -14.888,0 -22.382,0 -0.194,-0.218 -0.388,-0.437 -0.582,-0.655 8.633,-2.826 10.383,-10.713 13.748,-18.065 z"
         id="path36"
         inkscape:connector-curvature="0"
         style="clip-rule:evenodd;fill:#000000;fill-opacity:1;fill-rule:evenodd;stroke-width:1.2211796" />
      <path
         d="m 548.142,293.561 c 3.33,0.507 6.701,0.831 9.983,1.557 8.039,1.78 8.002,1.854 7.798,9.98 -0.07,2.796 -0.011,5.594 -0.349,8.521 -4.15,-8.001 -7.968,-16.14 -17.47,-19.064 0.013,-0.33 0.025,-0.662 0.038,-0.994 z"
         id="path38"
         inkscape:connector-curvature="0"
         style="clip-rule:evenodd;fill:#000000;fill-opacity:1;fill-rule:evenodd;stroke-width:1.2211796" />
      <path
         d="m 544.268,358.562 c -5.982,0.375 -11.661,-0.855 -17.174,-2.928 -0.479,-0.179 -0.969,-1.071 -0.979,-1.639 -0.077,-4.827 -0.043,-9.655 0.406,-14.621 4.284,8.015 8.262,16.04 17.747,19.188 z"
         id="path40"
         inkscape:connector-curvature="0"
         style="clip-rule:evenodd;fill:#000000;fill-opacity:1;fill-rule:evenodd;stroke-width:1.2211796" />
      <path
         d="m 356.702,402.917 c 1.81,1.91 3.814,3.681 5.326,5.803 0.571,0.801 0.235,2.492 -0.142,3.626 -0.209,0.626 -1.345,1.245 -2.09,1.281 -0.479,0.022 -1.247,-0.94 -1.475,-1.603 -0.939,-2.73 -1.722,-5.515 -2.562,-8.279 0.316,-0.276 0.63,-0.552 0.943,-0.828 z"
         id="path42"
         inkscape:connector-curvature="0"
         style="clip-rule:evenodd;fill:#000000;fill-opacity:1;fill-rule:evenodd;stroke-width:1.2211796" />
      <path
         d="m 355.631,389.478 c 3.164,1.272 5.766,2.84 6.406,6.024 0.237,1.184 -1.015,2.669 -1.587,4.016 -0.884,-0.855 -2.143,-1.556 -2.574,-2.599 -0.937,-2.263 -1.45,-4.702 -2.245,-7.441 z"
         id="path44"
         inkscape:connector-curvature="0"
         style="clip-rule:evenodd;fill:#000000;fill-opacity:1;fill-rule:evenodd;stroke-width:1.2211796" />
      <path
         d="m 384.805,404.306 c -4.763,-0.856 -9.533,-1.693 -13.5,-4.706 4.783,0.801 9.441,1.944 13.5,4.706 z"
         id="path46"
         inkscape:connector-curvature="0"
         style="clip-rule:evenodd;fill:#000000;fill-opacity:1;fill-rule:evenodd;stroke-width:1.2211796" />
    </g>
  </g>
</svg>
